<svg xmlns="http://www.w3.org/2000/svg" viewBox="0 0 400 320" fill="none">
  <defs>
    <radialGradient id="gg1" cx="50%" cy="50%" r="50%">
      <stop offset="0%" stop-color="#e0b775" stop-opacity="0.75"></stop>
      <stop offset="100%" stop-color="#c9934b" stop-opacity="0"></stop>
    </radialGradient>
    <radialGradient id="gg2" cx="50%" cy="50%" r="50%">
      <stop offset="0%" stop-color="#a98cc2" stop-opacity="0.65"></stop>
      <stop offset="100%" stop-color="#7d5a8e" stop-opacity="0"></stop>
    </radialGradient>
    <linearGradient id="trailGold" x1="0" y1="0" x2="1" y2="0">
      <stop offset="0%" stop-color="#c9934b" stop-opacity="0"></stop>
      <stop offset="100%" stop-color="#c9934b" stop-opacity="0.9"></stop>
    </linearGradient>
    <linearGradient id="trailPlum" x1="0" y1="0" x2="1" y2="0">
      <stop offset="0%" stop-color="#7d5a8e" stop-opacity="0"></stop>
      <stop offset="100%" stop-color="#7d5a8e" stop-opacity="0.9"></stop>
    </linearGradient>
  </defs>

  <g transform="translate(200 160) rotate(-14)">
    <ellipse cx="0" cy="0" rx="128" ry="92" stroke="#1d2140" stroke-width="0.5" opacity="0.28" fill="none"></ellipse>
    <ellipse cx="0" cy="0" rx="96" ry="68" stroke="#1d2140" stroke-width="0.5" opacity="0.4" fill="none"></ellipse>
    <ellipse cx="0" cy="0" rx="64" ry="44" stroke="#c9934b" stroke-width="0.6" opacity="0.6" fill="none" stroke-dasharray="2 4"></ellipse>
  </g>

  <g transform="translate(200 160) rotate(-14)">
    <path d="M -48 58 Q 40 74 92 18" stroke="url(#trailGold)" stroke-width="1.4" fill="none" stroke-linecap="round"></path>
    <path d="M 48 -58 Q -40 -74 -92 -18" stroke="url(#trailPlum)" stroke-width="1.4" fill="none" stroke-linecap="round"></path>
  </g>

  <g transform="translate(200 160) rotate(-14)" fill="#c9934b"><polygon points="92,18 86,12 96,10"></polygon></g>
  <g transform="translate(200 160) rotate(-14)" fill="#7d5a8e"><polygon points="-92,-18 -86,-12 -96,-10"></polygon></g>

  <g stroke="#1d2140" stroke-width="0.7" opacity="0.55" stroke-linecap="round" transform="translate(200 160) rotate(-14)" fill="none">
    <path d="M 108 0 L 96 0"></path><path d="M -108 0 L -96 0"></path>
    <path d="M 0 76 L 0 68"></path><path d="M 0 -76 L 0 -68"></path>
    <path d="M 96 0 L 100 -3 M 96 0 L 100 3"></path><path d="M -96 0 L -100 -3 M -96 0 L -100 3"></path>
    <path d="M 0 68 L -3 72 M 0 68 L 3 72"></path><path d="M 0 -68 L -3 -72 M 0 -68 L 3 -72"></path>
  </g>

  <g transform="translate(200 160)">
    <circle r="18" fill="#c9934b" opacity="0.14"></circle>
    <circle r="3" fill="#1d2140"></circle>
    <g stroke="#1d2140" stroke-width="0.5" opacity="0.7">
      <line x1="-8" y1="0" x2="-4" y2="0"></line><line x1="4" y1="0" x2="8" y2="0"></line>
      <line x1="0" y1="-8" x2="0" y2="-4"></line><line x1="0" y1="4" x2="0" y2="8"></line>
    </g>
  </g>

  <g transform="translate(200 160) rotate(-14) translate(92 18) rotate(14)">
    <circle r="26" fill="url(#gg1)"></circle>
    <circle r="14" fill="url(#gg1)" opacity="0.9"></circle>
    <circle r="4" fill="#c9934b"></circle>
    <g stroke="#1d2140" stroke-width="0.5" opacity="0.55" fill="none">
      <path d="M -14 -8 L 0 0 L 12 -10 L 10 8 L -8 10 Z"></path>
    </g>
    <g fill="#1d2140"><circle cx="-14" cy="-8" r="1.3"></circle><circle cx="12" cy="-10" r="1.6"></circle><circle cx="10" cy="8" r="1.2"></circle><circle cx="-8" cy="10" r="1.1"></circle></g>
  </g>

  <g transform="translate(200 160) rotate(-14) translate(-92 -18) rotate(14)">
    <circle r="22" fill="url(#gg2)"></circle>
    <circle r="12" fill="url(#gg2)" opacity="0.9"></circle>
    <circle r="3.2" fill="#7d5a8e"></circle>
    <g stroke="#1d2140" stroke-width="0.5" opacity="0.55" fill="none">
      <path d="M -10 -6 L 0 0 L 10 -8 L 6 8 Z"></path>
    </g>
    <g fill="#1d2140"><circle cx="-10" cy="-6" r="1.2"></circle><circle cx="10" cy="-8" r="1.4"></circle><circle cx="6" cy="8" r="1.1"></circle></g>
  </g>

  <g fill="#1d2140" opacity="0.4">
    <circle cx="148" cy="216" r="0.7"></circle><circle cx="256" cy="100" r="0.8"></circle>
    <circle cx="118" cy="130" r="0.6"></circle><circle cx="282" cy="192" r="0.7"></circle>
    <circle cx="200" cy="74" r="0.5"></circle><circle cx="200" cy="246" r="0.6"></circle>
  </g>
  <text x="200" y="302" font-family="&#39;Cormorant Garamond&#39;,Georgia,serif" font-size="13" font-style="italic" fill="#5a6086" text-anchor="middle" opacity="0.9">gravity · 引力</text>
</svg>