<svg xmlns="http://www.w3.org/2000/svg" viewBox="0 0 400 320" fill="none">
  <g stroke="#1d2140" stroke-width="0.6" fill="none" opacity="0.4">
    <circle cx="200" cy="160" r="110"></circle><circle cx="200" cy="160" r="84"></circle>
    <circle cx="200" cy="160" r="54"></circle><circle cx="200" cy="160" r="28"></circle>
  </g>
  <g stroke="#c9934b" stroke-width="0.9" stroke-linecap="round" opacity="0.9">
    <g transform="translate(200 160)">
      <g transform="rotate(0)"><line x1="0" y1="-110" x2="0" y2="-96"></line></g>
      <g transform="rotate(30)"><line x1="0" y1="-110" x2="0" y2="-98"></line></g>
      <g transform="rotate(60)"><line x1="0" y1="-110" x2="0" y2="-98"></line></g>
      <g transform="rotate(90)"><line x1="0" y1="-110" x2="0" y2="-96"></line></g>
      <g transform="rotate(120)"><line x1="0" y1="-110" x2="0" y2="-98"></line></g>
      <g transform="rotate(150)"><line x1="0" y1="-110" x2="0" y2="-98"></line></g>
      <g transform="rotate(180)"><line x1="0" y1="-110" x2="0" y2="-96"></line></g>
      <g transform="rotate(210)"><line x1="0" y1="-110" x2="0" y2="-98"></line></g>
      <g transform="rotate(240)"><line x1="0" y1="-110" x2="0" y2="-98"></line></g>
      <g transform="rotate(270)"><line x1="0" y1="-110" x2="0" y2="-96"></line></g>
      <g transform="rotate(300)"><line x1="0" y1="-110" x2="0" y2="-98"></line></g>
      <g transform="rotate(330)"><line x1="0" y1="-110" x2="0" y2="-98"></line></g>
    </g>
  </g>
  <g stroke="#1d2140" stroke-width="0.4" opacity="0.28" stroke-dasharray="2 4">
    <line x1="90" y1="160" x2="310" y2="160"></line><line x1="200" y1="50" x2="200" y2="270"></line>
    <line x1="122" y1="82" x2="278" y2="238"></line><line x1="278" y1="82" x2="122" y2="238"></line>
  </g>
  <g fill="#1d2140">
    <circle cx="200" cy="132" r="2"></circle><circle cx="228" cy="160" r="1.8"></circle>
    <circle cx="200" cy="188" r="2.2"></circle><circle cx="172" cy="160" r="1.6"></circle>
  </g>
  <circle cx="200" cy="160" r="16" fill="#c9934b" opacity="0.18"></circle>
  <circle cx="200" cy="160" r="8" fill="#c9934b" opacity="0.38"></circle>
  <circle cx="200" cy="160" r="3" fill="#c9934b"></circle>
  <g stroke="#c9934b" stroke-width="1" fill="#c9934b" opacity="0.95">
    <polygon points="200,160 196,96 200,70 204,96"></polygon>
  </g>
  <circle cx="200" cy="160" r="2" fill="#f6f1e1" stroke="#c9934b" stroke-width="0.8"></circle>
  <text x="200" y="300" font-family="&#39;Cormorant Garamond&#39;,Georgia,serif" font-size="13" font-style="italic" fill="#5a6086" text-anchor="middle" opacity="0.9">astrolabe · 星盘</text>
</svg>