<svg xmlns="http://www.w3.org/2000/svg" viewBox="0 0 120 120" fill="none">
  <defs>
    <radialGradient id="starGlow" cx="50%" cy="50%" r="50%">
      <stop offset="0%" stop-color="#f4ead2" stop-opacity="1"></stop>
      <stop offset="45%" stop-color="#e0b775" stop-opacity="0.8"></stop>
      <stop offset="100%" stop-color="#c9934b" stop-opacity="0"></stop>
    </radialGradient>
    <radialGradient id="starCore" cx="50%" cy="50%" r="50%">
      <stop offset="0%" stop-color="#f4ead2"></stop>
      <stop offset="70%" stop-color="#c9934b"></stop>
      <stop offset="100%" stop-color="#9d7033"></stop>
    </radialGradient>
    <linearGradient id="orbit" x1="0" y1="0" x2="1" y2="1">
      <stop offset="0%" stop-color="#1d2140" stop-opacity="0"></stop>
      <stop offset="40%" stop-color="#1d2140" stop-opacity="0.5"></stop>
      <stop offset="70%" stop-color="#c9934b" stop-opacity="0.8"></stop>
      <stop offset="100%" stop-color="#c9934b" stop-opacity="0"></stop>
    </linearGradient>
  </defs>

  
  <path d="M 22 74&#xA;           C 18 52, 32 26, 60 22&#xA;           S 104 38, 100 64&#xA;           S 76 102, 54 96&#xA;           S 28 84, 36 66&#xA;           S 66 44, 78 60&#xA;           S 70 82, 58 78" stroke="url(#orbit)" stroke-width="1.4" stroke-linecap="round" fill="none"></path>

  
  <path d="M 28 58 Q 60 20 92 52 T 68 94" stroke="#1d2140" stroke-width="0.7" stroke-linecap="round" fill="none" opacity="0.25"></path>

  
  <circle cx="60" cy="60" r="22" fill="url(#starGlow)"></circle>
  <circle cx="60" cy="60" r="12" fill="url(#starGlow)" opacity="0.9"></circle>

  
  <circle cx="60" cy="60" r="5.5" fill="url(#starCore)"></circle>

  
  <circle cx="78" cy="60" r="2.6" fill="url(#starCore)"></circle>
  <circle cx="36" cy="66" r="2.2" fill="url(#starCore)"></circle>

  
  <circle cx="60" cy="60" r="18" stroke="#c9934b" stroke-width="0.5" fill="none" opacity="0.45"></circle>
</svg>